<svg width="20" height="20" viewBox="0 0 20 20" fill="none" xmlns="http://www.w3.org/2000/svg">
<path fill-rule="evenodd" clip-rule="evenodd" d="M10 1.875C5.5125 1.875 1.875 5.5125 1.875 10C1.875 14.4875 5.5125 18.125 10 18.125C14.4875 18.125 18.125 14.4875 18.125 10C18.125 5.5125 14.4875 1.875 10 1.875ZM13.5667 10.4417C13.6837 10.3245 13.7494 10.1656 13.7494 10C13.7494 9.83437 13.6837 9.67552 13.5667 9.55833L11.0667 7.05833C11.0094 6.99693 10.9404 6.94768 10.8638 6.91352C10.7871 6.87936 10.7044 6.86099 10.6204 6.85951C10.5365 6.85803 10.4532 6.87346 10.3753 6.9049C10.2975 6.93633 10.2268 6.98312 10.1675 7.04247C10.1081 7.10182 10.0613 7.17251 10.0299 7.25034C9.99846 7.32816 9.98303 7.41152 9.98451 7.49543C9.98599 7.57935 10.0044 7.66212 10.0385 7.73878C10.0727 7.81545 10.1219 7.88445 10.1833 7.94167L11.6167 9.375H6.875C6.70924 9.375 6.55027 9.44085 6.43306 9.55806C6.31585 9.67527 6.25 9.83424 6.25 10C6.25 10.1658 6.31585 10.3247 6.43306 10.4419C6.55027 10.5592 6.70924 10.625 6.875 10.625H11.6167L10.1833 12.0583C10.1219 12.1156 10.0727 12.1846 10.0385 12.2612C10.0044 12.3379 9.98599 12.4206 9.98451 12.5046C9.98303 12.5885 9.99846 12.6718 10.0299 12.7497C10.0613 12.8275 10.1081 12.8982 10.1675 12.9575C10.2268 13.0169 10.2975 13.0637 10.3753 13.0951C10.4532 13.1265 10.5365 13.142 10.6204 13.1405C10.7044 13.139 10.7871 13.1206 10.8638 13.0865C10.9404 13.0523 11.0094 13.0031 11.0667 12.9417L13.5667 10.4417Z" fill="white"/>
</svg>
